<svg xmlns="http://www.w3.org/2000/svg" width="960" height="684"><path d="M0 0h960v684H0Z" fill="#ffffff"/><path d="M923 79h4l2 1-1 3-1 1-1 3-1 8-1 5-4 4-4 2-6 2-12 6-5 2-4 2-3 1-3 2-3 2-2 2-3 2-2 2-3 2-8 8-2 4-2 5-6 6-2 3-5 3-10 5-4 3-8 8-2 3-4 4-4 2-2 2-5 3-5 2-4 1-5 3-3 1-4 3-4 3-3 2-4 1-6 3-2 2-5 3-3 3-5 3-1 1-3 1-3 4-2 5-3 3-3 2-6 6-3 6-3 10-2 4-3 2-10 1-5 2-2 1h-4l-8-1h-3l-6 3-3 2h-2v2l-3 6-3 4-2 2-3 5-2 4-2 3-3 17v9l1 4 3 7 4 8 2 3 2 4 3 4 3 5 1 1 1 3 3 4 3 3 2 3 15 15 2 3 5 5 2 3 4 4 2 3 3 4 1 2 1 7 2 5 1 2 1 5v2h4l1 1v6l-2 3h-3l-2-3h-5l-4-2-2-2-3-2-3-1-8-1-5-2-5-1h-8l-6 1-11 4-3 1-3 3-3 6-3 3-5 2-1 1h-5l-4-2-4-3-8-4-5-1-10-3-6-1h-28l-5 2-5 3-4 4-2 4-2 5-2 4v5l1 9v3l-4 12-1 4-2 4-3 4-2 3-3 7-2 3h-6l-3-1h-7l-5 2-5 3-2 4-6 6-4 2-1 1-7 2-10 4-9 3-4 2-5 5-2 1-5 1-6 3-2 2-6 3-7 2-9 2-2 1h-10l-7 7-7 1h-2l-7-1-10-1h-22l-10 3-6 2-12 5-6 3-12 12-1 2-2 7-1 6v7l1 4 3 5 2 3 2 4 1 3v3l-1 2h-3l-6-3-2-2-3-1-18 2-3 2h-7v-18l-2-5-2-3-3-7-3-4-6-6-3-2-3-2h-10l-20 2-1 1-11 2-10 1-7 2h-7l-5-2-5-3-10-1-4-3-7-2-10-5-3-2-3-2-4-3-2-2-2-1-8-1-6-2-1-1-11-1-5-3-9-9-5-3-3-1-4-4-4-1-2-1-3-6-1-10-3-5-1-1v-4l1-3v-12l-3-3-3-2-3-4-8-1-2-6-2-3-3-5-3-7v-11l-1-5-3-4-2-2v-9l1-11 1-1v-2l-2-5-2-3-2-5-2-2-3-5-1-4-1-2-1-13v-5l2-4 1-4 1-1h7l2 2 4 2 1 1 2 6 3 3 3 2 2 2 3 1 3 3 5 3 2 1h6l6 1h3l5-2 10-5 3-3 3-2 3-3 2-3 4-4 2-4 3-3 2-4 1-6 2-4 3-4 2-3 2-5 3-4 3-2 9-2 3-1 5-1 5-2 3-1 2-2 7-2 7-1h2l2 2 5 3 3 1 17 2 5 3 10 4 3 3 3 2 2 2 2 1 10 1 3 2h3l2-2 4-2 3-2 7-3 5-3 2-2 1-4 3-5 3-7 2-8 2-12 3-11 1-5v-8l-1-15v-4l-2-5-1-2-1-5-1-13v-5h8l4 2 4 1 3 2 3 3 4 2 3 2 5 2 6 1 2 1 10 3h12l5-1 3-1h11l7 3 5 1h21l6 2 5 1 20 1 2 1 9 1 4 1 8 1 15 1h29l6-2 17-3 2-1 9-1 4-1 4-2 3-1 5-1 13-1 5-1 5-3 4-2 2-2 8-4 4-3 4-2 5-2 6-3 5-2 10-2 10-1 17-1 7-1 3-2 2-1 10-2 2-2 5-2 5-1 7-2 5-1 5-3 4-2 3-2 5-3 5-2 5-2 3-2 3-2 2-2 5-3 4-2 7-2 2-1h2v-2l3-4 14-14 3-2 1-1v-4l1-2 2-1h3l4 2h7l5-1 5-2 4-4 14-3 3-1 4-3 1-1 3-1 3-3 5-3 3-2 1-1 2-6 4-4 4-2 3-2h10l4-2 5-5 5-2 12-2 4-1 6-3 3-1 1-1 1-3 1-1h7l2-3 2-3 5-2Z" fill="#ebb94c"/><path d="M186 550h5l4 1 8 1 6 3 7 1 6 3 6 1 4 2h3l3-1h5l4 1 3 2 2 3h8l2 1h8l1 1v3l-3 5-1 1v3l3 2 8 1 3-1 4-3 1-1 3-1h3l9 2 1 1v3l-2 2-9 1-2 2-1 2v2l1 2h3l3-1 5-1h13l2 1v3l-1 3-1 6v7l1 4 3 5 2 3 2 4 1 3v3l-1 2h-3l-6-3-2-2-3-1-18 2-3 2h-7v-18l-2-5-2-3-3-7-3-4-6-6-3-2-3-2h-10l-20 2-1 1-11 2h-6l-1-1-2-7v-6l2-4h-2l-6-3-4-1h-5l-7-1-4-2-3-5-1-3v-3l2-3 1-1 5-2ZM649 359h3l1 1 1 3 4 3 1 1 1 3v2h2l3 2v3l-2 2-4 2-3 2-5 1h-3v2l-2 2h-2v2l-5 3-3 2-3 2h-5l-4-3h-3l-1 1v2l1 1 3 1 4 3 2 2v12h3l6 1 1 2v6l-3 3v4l3 1 11 1 4 1 2 2 1 3-2 4-3 3-5 2-1 1h-5l-4-2-4-3-8-4-5-1-10-3-6-1-25-1-1-7-1-2v-3l2-3 2-2v-4l-5-1-3-1-2-3-4-4-2-4v-3l3-8h3v-2l2-2h9l1 1v4l3 2 3 2 1 2h1l3-3 3-1h4l1 1 3-1h7l3-6 3-2h9l2 1h5l4-3 4-2 2-2v-4l-1-3v-2l2-3 1-1 1-6Z" fill="#bc3e3e"/><path d="M419 263h3l2 3 1 2 1 4v8l-1 6v5l1 6 2 3 2 2 6 3 3 1 18 1 3 2 1 1v6l-2 5-2 1-7 1v4l4 2 2 2v3l-2 3h-3l-6-2v1l1 1 1 3v2l-1 3-3 3-2 1h-5l-3-2-2-3v-6l2-3 1-1-1-1-10-3-4-2-6-2-6-3-7-7-2-3-6-6-2-3-2-3-2-4-2-9v-5l2-4 1-1 11-4 12-2 3-2 5-5ZM533 275h8l13 3 3 2 4 3 4 4 3 2 3 3 3 2 8 8 1 3v2l-2 9-2 3-1 1h-5l-2-1-3-5-2-4-5-5-2-1h-7l-6 3-5 5-3 2-10 3-3 1-3-2h-13l-2-1-3-5v-4l3-2 2-2 6-2 5-5 2-4 2-8 2-2 2-3 3-2ZM844 154h5l2 1v1l-4 3-12 6-4 3-8 8-2 3-4 4-4 2-2 2-5 3-5 2-4 1-5 3h-3l-4-2-10-4-1-3 1-3 6-6 4-2 4-3 3-2 4-3 5-3 2-1 25-6 11-3ZM186 550h5l4 1 8 1 6 3 7 1 6 3 6 1 4 2 2 2v2l-1 1h-4v2l-2 3-3 2-1 3h-12l-7-3-4-2-4-1h-5l-7-1-4-2-3-5-1-3v-3l2-3 1-1 5-2ZM486 494h6l18 1 5 1 3 1 1 2v2l-2 2-3 1-12 2h-9l-5-1h-8l-2 2-2 4-2 2-2 3-3 3-5 1-6 2h-3l-3-2-1-3v-7l1-4 3-3 5-3 6-3 7-2ZM739 177h1l1 6v7l-4 11-1 4-2 4-2 2-2 3-3 2-3 2-5 3-4 2-3 2-5 3-3 2-2 1h-7v-2l6-6 3-2 8-8 2-3 3-4 1-4 1-8v-7l2-2 5-3 4-2 7-2ZM506 393h6l1 1v5l-1 2-1 4v11l2 7 1 5v4l-2 3-4 3-2 1h-3l-1-1-2-5-1-1-4-10-1-1v-2h-2l-1-1h-9l-2-2v-2l3-3 5-3 7-3 4-2 2-3 2-4ZM527 359h8l5 2 6 3 2 2 1 2v6l-7 7-8 4-3 1h-2l-3-2-11-11-2-4 1-3 3-3ZM637 253h10l2 1 2 4v5l-2 3-3 3-5 3-7 2h-2l-9-2-3-2-2-3v-3l3-4 5-3 4-2ZM517 328h8l3 2 6 6 2 3 3 4 1 2v2l-2 2-2 1h-10l-3 1h-2l-3-2-3-1-2-2-2-6-2-3v-6l4-2ZM160 518l6 1 2 1 7 1 5 2h7l5-1 3 2v10l-2 3h-11l-3-1-4-3-1-1v-3h-2l-6-1h-9l-2-2-1-2v-2l1-2ZM572 336h9l4 2 3 4 2 3 1 2v5l-3 2-3 1h-3l-3-1-4-3h-2l-4-4-13-1-2-1-1-3 3-2 11-3ZM680 227h4l2 3v7l-1 4-1 11-1 3-3 3h-1l-5-5-2-3-2-2-5-3-1-1v-5l2-2 5-2 2-1h3v-2l2-2ZM173 466h7l5 3 3 3 2 3 2 3 3 6v4l-2 2-3 1-1-1-5-2-4-4-2-3-5-5-2-4v-4ZM229 359h10l3 1h2l1-1h5l1 2h5l2 2v1h-4v9h-5l-2-1h-6l-1-1-9-1-3-3-1-2v-3ZM43 441h7l7 3 5 2h4l3-1h3l3 1v6l-1 1h-3l-3-1H55l-5 1-1 1-3 1h-3l-3-4-2-2v-4l3-3ZM110 393l3 1 3 2v4l-2 3-2 7-2 3-7 7h-2v2l-1 4-1 1h-2l-2-3v-9l3-5 2-1h3v-4l1-6 4-3ZM274 348h9l5 3 4 4 1 2v5l-1 1-5 1h-3l-2-3-2-1h-11l-1-1v-2l-1-1 1-3 4-4ZM125 422h2l2 1 2 4 1 14 2 4 2 3v1l-1 1h-4l-2-2-3-2-2-2-2-3-2-3-1-5v-3h-2v-3l4-3ZM419 535h4l2 2v3l-1 2h2l2 1 1 6v7l-1 4h-5l-5-1-2-2-1-3v-4l2-5 2-2 1-2h-2v-5ZM168 536h1l3 3 1 2v3l-1 2-3 2-3 3-2 1-4 1-2 1h-2l-2-1-4-1-1-1v-4l2-3 7-2 3-2 2-2 4-1ZM425 405h7l4 2 6 6v5l-2 3-2 2-3-1-2-3-5-3-3-2-1-1v-7ZM62 416h8l2 2 1 3v4l-1 3-2 1-2 3-2 1h-6l-1-1-1-6v-2l1-4 2-3Z" fill="#6d4d84"/><path d="M438 333l5 1 3 3 1 3v2l-1 3-3 3-2 1h-5l-3-2-2-3v-6l2-3 1-1Z"/><path d="M500 464h7l2 2 1 4v4l-1 3-2 2-3 1h-2l-3-2-2-3-1-3v-3l2-3ZM579 256h4l3 3 2 6v3l-3 4-3 2-3-1-2-3-1-2-1-4v-3l2-3ZM346 271h6l3 2 2 2v5l-3 3-2 1-5 1-3-2-1-2v-2l1-5ZM594 257h8l3 2 1 2v7l-2 2-2 1h-2l-3-2-3-2-1-4v-4ZM254 567h6l2 1h8l1 1v3l-3 5-2 3-3-1-2-2-5-3-3-2-1-4ZM618 316h8l2 1v3l-3 3-5 2h-12l-1-1v-3l3-2 5-2ZM538 425h8l5 2 3 3v1l-3 2-10 2h-3l-1-1-1-3v-3ZM569 390h1l1 1 2 8 1 2 3 2 1 1v6l-2 2h-2l-2-3-4-4-2-4v-3ZM596 364h5l3 4v6l-2 3-2 1h-2l-4-4-2-4v-3l2-2Z" fill="#6d4d84"/><path d="M149 479h4l5 5v3l-3 3-3 2h-4l-2-2v-8l1-2Z" fill="#6d4d83"/><path d="M354 536h3l3 3 1 2v5l-2 2-2 1h-4l-2-1-1-3v-4l1-3ZM201 335h4l3 2v2l-2 2v2l3 2 2 1v4h-3l-6-3-2-2-1-2v-7ZM125 557h3l4 4v4l-1 3-1 1h-2l-6-2-2-2v-2l2-4ZM102 540h2l1 1 1 5-2 4-5 5h-1l-2-2-1-2v-2l1-3 3-3h2v-2Z" fill="#6d4d84"/><path d="M436 336h6l2 3v5l-2 2h-6l-3-3v-3l2-3Z" fill="#ffffff"/><path d="M196 504h6l3 3 1 2v3l-2 2h-5l-3-2-2-4 1-3ZM347 553h4l3 2v5l-1 1-3 1h-5l-1-1v-5ZM582 391h2l3 2 3 2 1 3-3 3h-5l-2-1-1-2v-4ZM271 333h9l2 2-1 3-2 3h-5l-4-3v-3ZM127 492h2l2 2 1 2v2l-2 2-2 3-1 1h-1l-2-2-1-5 1-3ZM121 372h6l2 2v4l-2 2h-5l-2-2-1-2v-2Z" fill="#6d4d84"/><path d="M213 481h5l2 3v6l-1 1h-4l-2-4-1-1v-4Z" fill="#6d4d83"/><path d="M106 429h1l3 3 2 4v4l-1 1h-4l-2-3v-8ZM160 332h2v8l-3 1-4-2-3-1-1-1v-1l3-2Z" fill="#6d4d84"/><path d="M134 507h4l2 3v4l-2 2h-3l-2-2-1-2v-3Z" fill="#6d4d83"/><path d="M83 430l4 1 2 1v3l-3 3h-3l-3-2-2-2v-1ZM141 534l4 1 1 1 1 3v2l-1 2h-3l-3-2-1-2v-3ZM152 464h6l3 2v2l-2 1h-7l-2-2v-2Z" fill="#6d4d84"/><path d="M316 577h4l1 1v5l-1 1h-4l-2-2v-3ZM79 537h5l1 2v3l-2 2h-3l-2-1v-5ZM68 400h3l2 2v4l-1 1h-5l-1-1v-4ZM245 359h5l1 2v3l-2 2h-3l-2-1v-5ZM429 257h3l2 2v4l-1 1h-5l-1-1v-4ZM550 456h3l2 2v3l-1 2h-5l-1-1v-4ZM674 358h3l2 2v3l-1 2h-5l-1-1v-4ZM231 351h3l2 3v2l-2 2h-4l-2-3 1-3ZM334 268h4l1 1v5l-2 1h-3l-2-2v-3ZM437 549h3l2 2v4l-1 1h-4l-2-2v-3ZM419 535h4l2 2v3l-3 2h-2l-2-1v-5ZM353 420h4l2 2v3l-2 2h-3l-2-2v-4ZM583 288h4l1 1v4l-2 2h-3l-2-2v-3ZM834 124h4l1 1v5l-2 1h-2l-2-1-1-2v-2ZM436 338h5l1 1v4l-1 1h-5l-1-2v-2Z"/><path d="M549 465h8v7h-1l-1-1-3-1-1-3-2-1Z" fill="#6d4d83"/></svg>